<svg width="213" height="40" viewBox="0 0 213 40" fill="none" xmlns="http://www.w3.org/2000/svg">
<path d="M71.17 28.1C71.39 28.14 71.66 28.18 71.98 28.22C72.3 28.24 72.6 28.25 72.88 28.25C73.56 28.25 74.18 28.15 74.74 27.95C75.32 27.75 75.81 27.44 76.21 27.02C76.63 26.6 76.95 26.06 77.17 25.4C77.41 24.72 77.53 23.91 77.53 22.97C77.53 21.17 77.11 19.82 76.27 18.92C75.43 18 74.31 17.54 72.91 17.54C72.63 17.54 72.34 17.55 72.04 17.57C71.76 17.59 71.47 17.62 71.17 17.66V28.1ZM72.85 32.48C72.51 32.48 72.12 32.47 71.68 32.45C71.24 32.43 70.78 32.39 70.3 32.33C69.84 32.27 69.37 32.19 68.89 32.09C68.43 32.01 68 31.89 67.6 31.73C66.5 31.31 65.95 30.58 65.95 29.54V15.53C65.95 15.11 66.06 14.79 66.28 14.57C66.52 14.33 66.84 14.14 67.24 14C68.1 13.72 69.01 13.54 69.97 13.46C70.93 13.36 71.79 13.31 72.55 13.31C74.11 13.31 75.52 13.5 76.78 13.88C78.06 14.26 79.15 14.85 80.05 15.65C80.97 16.43 81.68 17.42 82.18 18.62C82.68 19.82 82.93 21.24 82.93 22.88C82.93 24.48 82.69 25.88 82.21 27.08C81.73 28.26 81.04 29.26 80.14 30.08C79.26 30.88 78.2 31.48 76.96 31.88C75.72 32.28 74.35 32.48 72.85 32.48ZM94.7505 32.48C93.5705 32.48 92.4705 32.32 91.4505 32C90.4505 31.66 89.5705 31.16 88.8105 30.5C88.0705 29.84 87.4805 29.01 87.0405 28.01C86.6205 27.01 86.4105 25.84 86.4105 24.5C86.4105 23.18 86.6205 22.05 87.0405 21.11C87.4805 20.15 88.0505 19.37 88.7505 18.77C89.4505 18.15 90.2505 17.7 91.1505 17.42C92.0505 17.12 92.9705 16.97 93.9105 16.97C94.9705 16.97 95.9305 17.13 96.7905 17.45C97.6705 17.77 98.4205 18.21 99.0405 18.77C99.6805 19.33 100.17 20 100.51 20.78C100.87 21.56 101.05 22.41 101.05 23.33C101.05 24.01 100.86 24.53 100.48 24.89C100.1 25.25 99.5705 25.48 98.8905 25.58L91.4805 26.69C91.7005 27.35 92.1505 27.85 92.8305 28.19C93.5105 28.51 94.2905 28.67 95.1705 28.67C95.9905 28.67 96.7605 28.57 97.4805 28.37C98.2205 28.15 98.8205 27.9 99.2805 27.62C99.6005 27.82 99.8705 28.1 100.09 28.46C100.31 28.82 100.42 29.2 100.42 29.6C100.42 30.5 100 31.17 99.1605 31.61C98.5205 31.95 97.8005 32.18 97.0005 32.3C96.2005 32.42 95.4505 32.48 94.7505 32.48ZM93.9105 20.69C93.4305 20.69 93.0105 20.77 92.6505 20.93C92.3105 21.09 92.0305 21.3 91.8105 21.56C91.5905 21.8 91.4205 22.08 91.3005 22.4C91.2005 22.7 91.1405 23.01 91.1205 23.33L96.2505 22.49C96.1905 22.09 95.9705 21.69 95.5905 21.29C95.2105 20.89 94.6505 20.69 93.9105 20.69ZM117.305 27.65C117.305 29.17 116.735 30.36 115.595 31.22C114.455 32.08 112.775 32.51 110.555 32.51C109.715 32.51 108.935 32.45 108.215 32.33C107.495 32.21 106.875 32.03 106.355 31.79C105.855 31.53 105.455 31.21 105.155 30.83C104.875 30.45 104.735 30 104.735 29.48C104.735 29 104.835 28.6 105.035 28.28C105.235 27.94 105.475 27.66 105.755 27.44C106.335 27.76 106.995 28.05 107.735 28.31C108.495 28.55 109.365 28.67 110.345 28.67C110.965 28.67 111.435 28.58 111.755 28.4C112.095 28.22 112.265 27.98 112.265 27.68C112.265 27.4 112.145 27.18 111.905 27.02C111.665 26.86 111.265 26.73 110.705 26.63L109.805 26.45C108.065 26.11 106.765 25.58 105.905 24.86C105.065 24.12 104.645 23.07 104.645 21.71C104.645 20.97 104.805 20.3 105.125 19.7C105.445 19.1 105.895 18.6 106.475 18.2C107.055 17.8 107.745 17.49 108.545 17.27C109.365 17.05 110.265 16.94 111.245 16.94C111.985 16.94 112.675 17 113.315 17.12C113.975 17.22 114.545 17.38 115.025 17.6C115.505 17.82 115.885 18.11 116.165 18.47C116.445 18.81 116.585 19.22 116.585 19.7C116.585 20.16 116.495 20.56 116.315 20.9C116.155 21.22 115.945 21.49 115.685 21.71C115.525 21.61 115.285 21.51 114.965 21.41C114.645 21.29 114.295 21.19 113.915 21.11C113.535 21.01 113.145 20.93 112.745 20.87C112.365 20.81 112.015 20.78 111.695 20.78C111.035 20.78 110.525 20.86 110.165 21.02C109.805 21.16 109.625 21.39 109.625 21.71C109.625 21.93 109.725 22.11 109.925 22.25C110.125 22.39 110.505 22.52 111.065 22.64L111.995 22.85C113.915 23.29 115.275 23.9 116.075 24.68C116.895 25.44 117.305 26.43 117.305 27.65ZM135.521 29.36C135.421 30.3 135.141 31.02 134.681 31.52C134.241 32.02 133.591 32.27 132.731 32.27C132.091 32.27 131.521 32.12 131.021 31.82C130.521 31.5 129.981 30.97 129.401 30.23L126.431 26.51V31.97C126.211 32.01 125.881 32.06 125.441 32.12C125.021 32.2 124.591 32.24 124.151 32.24C123.711 32.24 123.311 32.21 122.951 32.15C122.611 32.09 122.321 31.97 122.081 31.79C121.841 31.61 121.651 31.37 121.511 31.07C121.391 30.75 121.331 30.34 121.331 29.84V12.47C121.551 12.41 121.871 12.35 122.291 12.29C122.731 12.21 123.171 12.17 123.611 12.17C124.051 12.17 124.441 12.2 124.781 12.26C125.141 12.32 125.441 12.44 125.681 12.62C125.921 12.8 126.101 13.05 126.221 13.37C126.361 13.67 126.431 14.07 126.431 14.57V22.49L131.591 17.21C132.631 17.21 133.461 17.44 134.081 17.9C134.721 18.36 135.041 18.94 135.041 19.64C135.041 19.94 134.991 20.22 134.891 20.48C134.791 20.72 134.631 20.97 134.411 21.23C134.211 21.49 133.941 21.77 133.601 22.07C133.281 22.35 132.901 22.68 132.461 23.06L130.721 24.56L135.521 29.36ZM144.902 28.25C145.182 28.33 145.542 28.39 145.982 28.43C146.422 28.45 146.842 28.46 147.242 28.46C148.042 28.46 148.702 28.3 149.222 27.98C149.762 27.64 150.032 27.12 150.032 26.42C150.032 25.76 149.812 25.29 149.372 25.01C148.932 24.73 148.262 24.59 147.362 24.59H144.902V28.25ZM144.902 20.93H147.092C147.952 20.93 148.572 20.77 148.952 20.45C149.352 20.13 149.552 19.66 149.552 19.04C149.552 18.5 149.322 18.07 148.862 17.75C148.422 17.43 147.752 17.27 146.852 17.27C146.552 17.27 146.202 17.28 145.802 17.3C145.422 17.32 145.122 17.35 144.902 17.39V20.93ZM146.852 32.48C146.512 32.48 146.112 32.47 145.652 32.45C145.192 32.43 144.712 32.39 144.212 32.33C143.732 32.27 143.252 32.19 142.772 32.09C142.292 32.01 141.852 31.89 141.452 31.73C140.352 31.31 139.802 30.58 139.802 29.54V15.53C139.802 15.11 139.912 14.79 140.132 14.57C140.372 14.33 140.692 14.14 141.092 14C141.772 13.76 142.622 13.59 143.642 13.49C144.662 13.37 145.712 13.31 146.792 13.31C149.352 13.31 151.322 13.74 152.702 14.6C154.082 15.46 154.772 16.79 154.772 18.59C154.772 19.49 154.512 20.27 153.992 20.93C153.472 21.57 152.772 22.04 151.892 22.34C152.892 22.62 153.722 23.13 154.382 23.87C155.062 24.61 155.402 25.54 155.402 26.66C155.402 28.64 154.662 30.11 153.182 31.07C151.722 32.01 149.612 32.48 146.852 32.48ZM174.488 24.71C174.488 25.95 174.298 27.06 173.918 28.04C173.538 29 172.998 29.81 172.298 30.47C171.618 31.13 170.798 31.63 169.838 31.97C168.878 32.31 167.808 32.48 166.628 32.48C165.448 32.48 164.378 32.3 163.418 31.94C162.458 31.58 161.628 31.07 160.928 30.41C160.248 29.73 159.718 28.91 159.338 27.95C158.958 26.99 158.768 25.91 158.768 24.71C158.768 23.53 158.958 22.46 159.338 21.5C159.718 20.54 160.248 19.73 160.928 19.07C161.628 18.39 162.458 17.87 163.418 17.51C164.378 17.15 165.448 16.97 166.628 16.97C167.808 16.97 168.878 17.16 169.838 17.54C170.798 17.9 171.618 18.42 172.298 19.1C172.998 19.76 173.538 20.57 173.918 21.53C174.298 22.49 174.488 23.55 174.488 24.71ZM163.988 24.71C163.988 25.93 164.218 26.87 164.678 27.53C165.158 28.17 165.818 28.49 166.658 28.49C167.498 28.49 168.138 28.16 168.578 27.5C169.038 26.84 169.268 25.91 169.268 24.71C169.268 23.51 169.038 22.59 168.578 21.95C168.118 21.29 167.468 20.96 166.628 20.96C165.788 20.96 165.138 21.29 164.678 21.95C164.218 22.59 163.988 23.51 163.988 24.71ZM193.566 24.71C193.566 25.95 193.376 27.06 192.996 28.04C192.616 29 192.076 29.81 191.376 30.47C190.696 31.13 189.876 31.63 188.916 31.97C187.956 32.31 186.886 32.48 185.706 32.48C184.526 32.48 183.456 32.3 182.496 31.94C181.536 31.58 180.706 31.07 180.006 30.41C179.326 29.73 178.796 28.91 178.416 27.95C178.036 26.99 177.846 25.91 177.846 24.71C177.846 23.53 178.036 22.46 178.416 21.5C178.796 20.54 179.326 19.73 180.006 19.07C180.706 18.39 181.536 17.87 182.496 17.51C183.456 17.15 184.526 16.97 185.706 16.97C186.886 16.97 187.956 17.16 188.916 17.54C189.876 17.9 190.696 18.42 191.376 19.1C192.076 19.76 192.616 20.57 192.996 21.53C193.376 22.49 193.566 23.55 193.566 24.71ZM183.066 24.71C183.066 25.93 183.296 26.87 183.756 27.53C184.236 28.17 184.896 28.49 185.736 28.49C186.576 28.49 187.216 28.16 187.656 27.5C188.116 26.84 188.346 25.91 188.346 24.71C188.346 23.51 188.116 22.59 187.656 21.95C187.196 21.29 186.546 20.96 185.706 20.96C184.866 20.96 184.216 21.29 183.756 21.95C183.296 22.59 183.066 23.51 183.066 24.71ZM211.804 29.36C211.704 30.3 211.424 31.02 210.964 31.52C210.524 32.02 209.874 32.27 209.014 32.27C208.374 32.27 207.804 32.12 207.304 31.82C206.804 31.5 206.264 30.97 205.684 30.23L202.714 26.51V31.97C202.494 32.01 202.164 32.06 201.724 32.12C201.304 32.2 200.874 32.24 200.434 32.24C199.994 32.24 199.594 32.21 199.234 32.15C198.894 32.09 198.604 31.97 198.364 31.79C198.124 31.61 197.934 31.37 197.794 31.07C197.674 30.75 197.614 30.34 197.614 29.84V12.47C197.834 12.41 198.154 12.35 198.574 12.29C199.014 12.21 199.454 12.17 199.894 12.17C200.334 12.17 200.724 12.2 201.064 12.26C201.424 12.32 201.724 12.44 201.964 12.62C202.204 12.8 202.384 13.05 202.504 13.37C202.644 13.67 202.714 14.07 202.714 14.57V22.49L207.874 17.21C208.914 17.21 209.744 17.44 210.364 17.9C211.004 18.36 211.324 18.94 211.324 19.64C211.324 19.94 211.274 20.22 211.174 20.48C211.074 20.72 210.914 20.97 210.694 21.23C210.494 21.49 210.224 21.77 209.884 22.07C209.564 22.35 209.184 22.68 208.744 23.06L207.004 24.56L211.804 29.36Z" fill="#031837"/>
<path d="M25.7285 0C23.9825 0 22.308 0.693586 21.0734 1.92817C19.8388 3.16276 19.1453 4.83722 19.1453 6.58319V14.6691C21.513 15.8098 23.6895 17.4969 25.7285 19.3805V0Z" fill="#2880FC"/>
<path d="M41.8553 14.2734C39.5717 14.2269 37.3175 14.7928 35.3266 15.9123V6.58319C35.3266 5.71866 35.1563 4.86261 34.8255 4.06389C34.4947 3.26518 34.0097 2.53945 33.3984 1.92814C32.7871 1.31684 32.0614 0.831925 31.2627 0.501093C30.4639 0.170262 29.6079 -1.06941e-05 28.7434 5.03759e-10V22.364C29.3765 23.0236 29.9975 23.6846 30.6083 24.3352C32.3755 26.217 34.0975 28.0507 35.7838 29.4839C35.2811 28.2366 35.1921 26.8609 35.5298 25.5592C35.8675 24.2575 36.6142 23.0986 37.6599 22.2531C38.7055 21.4075 39.995 20.9199 41.3386 20.862C42.6821 20.8042 44.0087 21.1791 45.1232 21.9317C46.2377 22.6843 47.0812 23.7747 47.5296 25.0425C47.9779 26.3104 48.0075 27.6886 47.6139 28.9745C47.2203 30.2604 46.4243 31.386 45.3431 32.1856C44.2619 32.9853 42.9525 33.4168 41.6078 33.4165C41.5238 33.4165 41.4404 33.4142 41.3573 33.4107C41.3319 33.4097 41.3064 33.4082 41.281 33.4069C41.221 33.4036 41.1613 33.3995 41.1019 33.3946C41.0757 33.3924 41.0493 33.3904 41.0231 33.3879C40.9448 33.3804 40.8667 33.3716 40.7892 33.3615C40.763 33.358 40.737 33.3534 40.7108 33.3498C40.6579 33.342 40.6049 33.334 40.5527 33.3253C32.6082 31.9671 25.4867 15.8454 14.4699 14.3785L14.4703 14.3726C14.2402 14.3437 14.0077 14.3229 13.774 14.3062C13.7337 14.3032 13.6935 14.3001 13.6531 14.2975C13.5967 14.294 13.5401 14.2905 13.4835 14.2878C13.358 14.2814 13.232 14.2768 13.1056 14.2742C13.0864 14.2738 13.0671 14.2738 13.0479 14.2734C12.9868 14.2726 12.9258 14.2713 12.8644 14.2713V14.2736C12.7819 14.2736 12.6997 14.2721 12.6168 14.2736C5.69165 14.4046 0.0721115 20.0746 0.000690534 27.0006C-0.0726035 34.1385 5.69816 39.9719 12.813 39.9999C18.3974 40.0218 23.1393 36.4335 24.9468 31.454C24.4098 30.8676 23.8827 30.2813 23.3632 29.7031C21.7408 27.8982 20.2147 26.2007 18.7164 24.8579C19.2026 26.1082 19.2757 27.4813 18.925 28.7761C18.5743 30.071 17.8181 31.2194 16.7673 32.0534C15.7166 32.8873 14.4263 33.3628 13.0857 33.4103C11.745 33.4578 10.4244 33.0748 9.31725 32.3173C8.21008 31.5598 7.37458 30.4677 6.93311 29.2009C6.49163 27.9341 6.4674 26.5593 6.86396 25.2778C7.26051 23.9962 8.05701 22.8753 9.13679 22.0793C10.2166 21.2833 11.5229 20.8539 12.8644 20.8541C13.0039 20.8541 13.1418 20.8603 13.279 20.8693L13.2797 20.8677C22.0615 21.441 28.2248 39.9996 41.6081 39.9996V39.9988C41.6253 39.9988 41.6423 39.9996 41.6596 39.9995C48.7743 39.9715 54.5453 34.138 54.4717 27.0001C54.3999 20.0743 48.7804 14.4044 41.8553 14.2734Z" fill="#2880FC"/>
</svg>
