<svg width="40" height="40" viewBox="0 0 40 40" fill="none" xmlns="http://www.w3.org/2000/svg">
<rect width="40" height="40" rx="4" fill="#F3F3F5"/>
<path d="M17.6667 12.2222C17.6667 11.6329 17.9008 11.0676 18.3175 10.6509C18.7343 10.2341 19.2995 10 19.8889 10C20.4783 10 21.0435 10.2341 21.4602 10.6509C21.877 11.0676 22.1111 11.6329 22.1111 12.2222C23.3871 12.8256 24.4749 13.7648 25.2578 14.9392C26.0408 16.1136 26.4894 17.479 26.5556 18.8889V22.2222C26.6392 22.913 26.8838 23.5745 27.2698 24.1535C27.6558 24.7324 28.1723 25.2127 28.7778 25.5556H11C11.6055 25.2127 12.122 24.7324 12.508 24.1535C12.894 23.5745 13.1386 22.913 13.2222 22.2222V18.8889C13.2884 17.479 13.737 16.1136 14.5199 14.9392C15.3029 13.7648 16.3907 12.8256 17.6667 12.2222Z" stroke="#031837" stroke-width="2" stroke-linecap="round" stroke-linejoin="round"/>
<path d="M16.5559 25.5557V26.6668C16.5559 27.5508 16.9071 28.3987 17.5322 29.0238C18.1573 29.6489 19.0052 30.0001 19.8892 30.0001C20.7733 30.0001 21.6211 29.6489 22.2463 29.0238C22.8714 28.3987 23.2226 27.5508 23.2226 26.6668V25.5557" stroke="#031837" stroke-width="2" stroke-linecap="round" stroke-linejoin="round"/>
</svg>
