<svg width="40" height="40" viewBox="0 0 40 40" fill="none" xmlns="http://www.w3.org/2000/svg">
<rect width="40" height="40" rx="4" fill="#F3F3F5"/>
<path d="M20 30C25.5228 30 30 25.5228 30 20C30 14.4772 25.5228 10 20 10C14.4772 10 10 14.4772 10 20C10 25.5228 14.4772 30 20 30Z" stroke="#031837" stroke-width="2" stroke-linecap="round" stroke-linejoin="round"/>
<path d="M20.0006 21.111C21.8415 21.111 23.3339 19.6186 23.3339 17.7777C23.3339 15.9367 21.8415 14.4443 20.0006 14.4443C18.1596 14.4443 16.6672 15.9367 16.6672 17.7777C16.6672 19.6186 18.1596 21.111 20.0006 21.111Z" stroke="#031837" stroke-width="2" stroke-linecap="round" stroke-linejoin="round"/>
<path d="M13.5183 27.6099C13.7933 26.6946 14.3561 25.8923 15.123 25.3221C15.89 24.7519 16.8204 24.4441 17.7761 24.4443H22.2205C23.1775 24.444 24.109 24.7526 24.8765 25.3241C25.644 25.8956 26.2066 26.6996 26.4805 27.6166" stroke="#031837" stroke-width="2" stroke-linecap="round" stroke-linejoin="round"/>
</svg>
